<svg width="40" height="40" viewBox="0 0 40 40" fill="none" xmlns="http://www.w3.org/2000/svg">
<path d="M40 20C40 31.0457 31.0457 40 20 40C8.9543 40 0 31.0457 0 20C0 8.9543 8.9543 0 20 0C31.0457 0 40 8.9543 40 20Z" fill="#26B7D1"/>
<path d="M21.6663 21.2503H23.7497L24.583 17.917H21.6663V16.2503C21.6663 15.392 21.6663 14.5837 23.333 14.5837H24.583V11.7837C24.3113 11.7478 23.2855 11.667 22.2022 11.667C19.9397 11.667 18.333 13.0478 18.333 15.5837V17.917H15.833V21.2503H18.333V28.3337H21.6663V21.2503Z" fill="white"/>
</svg>
