<svg width="40" height="40" viewBox="0 0 40 40" fill="none" xmlns="http://www.w3.org/2000/svg">
<path d="M40 20C40 31.0457 31.0457 40 20 40C8.9543 40 0 31.0457 0 20C0 8.9543 8.9543 0 20 0C31.0457 0 40 8.9543 40 20Z" fill="#26B7D1"/>
<path d="M19.9998 17.5003C19.3368 17.5003 18.7009 17.7637 18.2321 18.2326C17.7632 18.7014 17.4998 19.3373 17.4998 20.0003C17.4998 20.6634 17.7632 21.2993 18.2321 21.7681C18.7009 22.2369 19.3368 22.5003 19.9998 22.5003C20.6629 22.5003 21.2988 22.2369 21.7676 21.7681C22.2364 21.2993 22.4998 20.6634 22.4998 20.0003C22.4998 19.3373 22.2364 18.7014 21.7676 18.2326C21.2988 17.7637 20.6629 17.5003 19.9998 17.5003ZM19.9998 15.8337C21.1049 15.8337 22.1647 16.2726 22.9461 17.054C23.7275 17.8354 24.1665 18.8953 24.1665 20.0003C24.1665 21.1054 23.7275 22.1652 22.9461 22.9466C22.1647 23.728 21.1049 24.167 19.9998 24.167C18.8948 24.167 17.835 23.728 17.0536 22.9466C16.2722 22.1652 15.8332 21.1054 15.8332 20.0003C15.8332 18.8953 16.2722 17.8354 17.0536 17.054C17.835 16.2726 18.8948 15.8337 19.9998 15.8337ZM25.4165 15.6253C25.4165 15.9016 25.3068 16.1665 25.1114 16.3619C24.9161 16.5572 24.6511 16.667 24.3748 16.667C24.0986 16.667 23.8336 16.5572 23.6383 16.3619C23.4429 16.1665 23.3332 15.9016 23.3332 15.6253C23.3332 15.3491 23.4429 15.0841 23.6383 14.8888C23.8336 14.6934 24.0986 14.5837 24.3748 14.5837C24.6511 14.5837 24.9161 14.6934 25.1114 14.8888C25.3068 15.0841 25.4165 15.3491 25.4165 15.6253ZM19.9998 13.3337C17.9382 13.3337 17.6015 13.3395 16.6423 13.382C15.989 13.4128 15.5507 13.5003 15.144 13.6587C14.7823 13.7987 14.5215 13.9662 14.244 14.2445C13.9832 14.4965 13.7826 14.8041 13.6573 15.1445C13.499 15.5528 13.4115 15.9903 13.3815 16.6428C13.3382 17.5628 13.3332 17.8845 13.3332 20.0003C13.3332 22.062 13.339 22.3987 13.3815 23.3578C13.4123 24.0103 13.4998 24.4495 13.6573 24.8553C13.799 25.2178 13.9657 25.4787 14.2423 25.7553C14.5232 26.0353 14.784 26.2028 15.1423 26.3412C15.554 26.5003 15.9923 26.5887 16.6423 26.6187C17.5623 26.662 17.884 26.667 19.9998 26.667C22.0615 26.667 22.3982 26.6612 23.3573 26.6187C24.009 26.5878 24.4482 26.5003 24.8548 26.3428C25.2157 26.202 25.4782 26.0345 25.7548 25.7578C26.0357 25.477 26.2032 25.2162 26.3415 24.8578C26.4998 24.447 26.5882 24.0078 26.6182 23.3578C26.6615 22.4378 26.6665 22.1162 26.6665 20.0003C26.6665 17.9387 26.6607 17.602 26.6182 16.6428C26.5873 15.9912 26.4998 15.5512 26.3415 15.1445C26.2159 14.8045 26.0157 14.497 25.7557 14.2445C25.5038 13.9835 25.1961 13.783 24.8557 13.6578C24.4473 13.4995 24.009 13.412 23.3573 13.382C22.4373 13.3387 22.1157 13.3337 19.9998 13.3337ZM19.9998 11.667C22.264 11.667 22.5465 11.6753 23.4348 11.717C24.3223 11.7587 24.9265 11.8978 25.4582 12.1045C26.0082 12.3162 26.4715 12.6028 26.9348 13.0653C27.3586 13.4819 27.6865 13.9858 27.8957 14.542C28.1015 15.0728 28.2415 15.6778 28.2832 16.5653C28.3223 17.4537 28.3332 17.7362 28.3332 20.0003C28.3332 22.2645 28.3248 22.547 28.2832 23.4353C28.2415 24.3228 28.1015 24.927 27.8957 25.4587C27.6871 26.0151 27.3591 26.5192 26.9348 26.9353C26.5181 27.3589 26.0143 27.6868 25.4582 27.8962C24.9273 28.102 24.3223 28.242 23.4348 28.2837C22.5465 28.3228 22.264 28.3337 19.9998 28.3337C17.7357 28.3337 17.4532 28.3253 16.5648 28.2837C15.6773 28.242 15.0732 28.102 14.5415 27.8962C13.9851 27.6874 13.4811 27.3594 13.0648 26.9353C12.641 26.5188 12.3131 26.0149 12.104 25.4587C11.8973 24.9278 11.7582 24.3228 11.7165 23.4353C11.6773 22.547 11.6665 22.2645 11.6665 20.0003C11.6665 17.7362 11.6748 17.4537 11.7165 16.5653C11.7582 15.677 11.8973 15.0737 12.104 14.542C12.3125 13.9855 12.6405 13.4814 13.0648 13.0653C13.4812 12.6414 13.9852 12.3134 14.5415 12.1045C15.0732 11.8978 15.6765 11.7587 16.5648 11.717C17.4532 11.6778 17.7357 11.667 19.9998 11.667Z" fill="white"/>
</svg>
