<svg xmlns="http://www.w3.org/2000/svg" width="10" height="6" viewBox="0 0 220 64" fill="none">
  <path d="M87.2852 0.669128H122.483V10.435H110.059V50.8608H99.6974V10.435H87.2852V0.669128Z" fill="#02404B"/>
  <path d="M178.831 13.3086C181.25 13.3086 183.49 13.7951 185.55 14.768C187.607 15.7349 189.381 17.0544 190.866 18.7327C192.351 20.405 193.518 22.363 194.367 24.6069C195.215 26.8447 195.64 29.2405 195.64 31.7945C195.64 34.3424 195.215 36.7383 194.367 38.9821C193.518 41.2199 192.351 43.1779 190.866 44.8563C189.381 46.5285 187.607 47.8481 185.55 48.821C183.49 49.7848 181.25 50.2683 178.831 50.2683C176.856 50.2683 174.932 49.9034 173.055 49.1737C171.184 48.4379 169.722 47.5045 168.67 46.3765V63.4395H159.205V14.3059H167.303L168.67 16.7139C169.996 15.4825 171.481 14.6069 173.126 14.0869C174.776 13.5701 176.677 13.3086 178.831 13.3086ZM177.593 41.5604C178.825 41.5604 179.98 41.302 181.059 40.7821C182.134 40.2652 183.068 39.5659 183.864 38.6902C184.666 37.8146 185.305 36.79 185.785 35.6133C186.272 34.4306 186.516 33.1566 186.516 31.7945C186.516 30.475 186.272 29.2132 185.785 28.0122C185.305 26.8051 184.666 25.7623 183.864 24.8866C183.068 24.011 182.134 23.3147 181.059 22.7948C179.98 22.2779 178.825 22.0164 177.593 22.0164C176.358 22.0164 175.203 22.1958 174.128 22.5516C173.049 22.9103 172.112 23.4758 171.31 24.2542C170.509 25.0326 169.878 26.0481 169.424 27.2946C168.968 28.5443 168.741 30.0432 168.741 31.7945C168.741 33.4424 168.968 34.8684 169.424 36.0755C169.878 37.2764 170.509 38.2889 171.31 39.1159C172.112 39.9429 173.049 40.5601 174.128 40.9645C175.203 41.3628 176.358 41.5604 177.593 41.5604Z" fill="#02404B"/>
  <mask id="mask0_301_2092" style="mask-type:luminance" maskUnits="userSpaceOnUse" x="112" y="3" width="45" height="48">
    <path d="M112.266 3.00433H156.884V50.6664H112.266V3.00433Z" fill="white"/>
  </mask>
  <g mask="url(#mask0_301_2092)">
    <path d="M139.369 47.2336C133.263 49.9822 125.952 47.0937 123.412 40.3318C121.888 36.2819 122.215 30.9794 125.224 27.0025H143.68C148.554 33.1959 146.96 43.8161 139.369 47.2336ZM151.262 6.4673H142.923V12.2989C141.228 10.4898 136.667 5.62206 134.495 3.30524C134.073 3.75218 117.341 21.6118 112.29 27.0025H115.054C112.818 32.305 112.906 38.6443 114.966 43.6945C121.879 60.6906 146.751 61.0555 153.991 43.576C156.16 38.3494 156.063 32.0283 154.012 27.0025H156.699L151.262 21.2013V6.4673Z" fill="#26B7D1"/>
  </g>
  <path d="M0 0.669128H35.1974V10.435H22.7734V50.8608H12.4122V10.435H0V0.669128Z" fill="#02404B"/>
  <path d="M50.1537 50.8487H40.6884V15.7377H50.1537V50.8487ZM45.4151 10.9216C43.9535 10.9216 42.7188 10.4047 41.7139 9.36489C40.706 8.3281 40.2051 7.05415 40.2051 5.54609C40.2051 4.03195 40.706 2.7428 41.7139 1.67864C42.7188 0.617527 43.9535 0.0854492 45.4151 0.0854492C46.8827 0.0854492 48.1204 0.617527 49.1282 1.67864C50.1331 2.7428 50.637 4.03195 50.637 5.54609C50.637 7.05415 50.1331 8.3281 49.1282 9.36489C48.1204 10.4047 46.8827 10.9216 45.4151 10.9216Z" fill="#02404B"/>
  <path d="M76.8981 13.5729C79.3175 13.5729 81.5571 14.0593 83.617 15.0323C85.6739 15.9992 87.448 17.3187 88.9332 18.997C90.4184 20.6693 91.5854 22.6273 92.4341 24.8712C93.2828 27.1089 93.7071 29.5048 93.7071 32.0588C93.7071 34.6067 93.2828 37.0026 92.4341 39.2464C91.5854 41.4842 90.4184 43.4422 88.9332 45.1205C87.448 46.7928 85.6739 48.1123 83.617 49.0853C81.5571 50.0491 79.3175 50.5325 76.8981 50.5325C74.9237 50.5325 72.9994 50.1677 71.1223 49.438C69.251 48.7022 67.7894 47.7688 66.7373 46.6408V63.7038H57.272V14.5701H65.37L66.7373 16.9782C68.0634 15.7468 69.5486 14.8711 71.193 14.3512C72.8432 13.8344 74.744 13.5729 76.8981 13.5729ZM75.6605 41.8247C76.8923 41.8247 78.0474 41.5663 79.126 41.0463C80.2016 40.5295 81.1357 39.8302 81.9314 38.9545C82.733 38.0789 83.3724 37.0542 83.8528 35.8776C84.339 34.6949 84.5836 33.4209 84.5836 32.0588C84.5836 30.7392 84.339 29.4775 83.8528 28.2765C83.3724 27.0694 82.733 26.0265 81.9314 25.1509C81.1357 24.2752 80.2016 23.579 79.126 23.0591C78.0474 22.5422 76.8923 22.2807 75.6605 22.2807C74.4257 22.2807 73.2705 22.4601 72.1949 22.8158C71.1164 23.1746 70.1793 23.7401 69.3777 24.5185C68.5762 25.2968 67.9455 26.3123 67.4917 27.5589C67.035 28.8086 66.8081 30.3075 66.8081 32.0588C66.8081 33.7067 67.035 35.1327 67.4917 36.3397C67.9455 37.5407 68.5762 38.5532 69.3777 39.3802C70.1793 40.2072 71.1164 40.8244 72.1949 41.2288C73.2705 41.6271 74.4257 41.8247 75.6605 41.8247Z" fill="#02404B"/>
  <path d="M202.816 44.245C203.27 44.5795 203.621 44.9991 203.865 45.5099C204.116 46.0206 204.243 46.574 204.243 47.1639C204.243 47.6503 204.151 48.1064 203.971 48.526C203.789 48.9486 203.547 49.3226 203.241 49.6449C202.94 49.9702 202.583 50.2256 202.168 50.4111C201.758 50.5965 201.319 50.6908 200.848 50.6908C200.476 50.6908 200.123 50.63 199.787 50.5083C199.457 50.3959 199.15 50.2347 198.867 50.0219C198.59 49.8121 198.349 49.5597 198.137 49.2678C197.93 48.976 197.771 48.6598 197.653 48.3192L199.48 47.5165C199.551 47.851 199.707 48.1338 199.952 48.3679C200.194 48.605 200.482 48.7206 200.812 48.7206C200.992 48.7206 201.166 48.681 201.331 48.5989C201.496 48.5199 201.64 48.4104 201.767 48.2706C201.891 48.1338 201.991 47.9726 202.062 47.7841C202.133 47.5986 202.168 47.4041 202.168 47.2003C202.168 46.9906 202.133 46.796 202.062 46.6166C201.991 46.4311 201.891 46.27 201.767 46.1301C201.64 45.9933 201.49 45.8838 201.319 45.8017C201.154 45.7227 200.966 45.6801 200.753 45.6801C200.494 45.6801 200.264 45.747 200.07 45.8747L199.032 44.5126L200.671 42.3478H198.16V40.3654H203.276V41.3505L201.673 43.7586C202.103 43.8498 202.486 44.0109 202.816 44.245Z" fill="#26B7D1"/>
  <path d="M210.79 44.245C211.229 44.5795 211.574 44.9991 211.827 45.5099C212.087 46.0206 212.216 46.574 212.216 47.1639C212.216 47.6503 212.125 48.1064 211.945 48.526C211.763 48.9486 211.521 49.3226 211.214 49.6449C210.908 49.9702 210.548 50.2256 210.142 50.4111C209.732 50.5965 209.293 50.6908 208.822 50.6908C208.35 50.6908 207.905 50.5965 207.49 50.4111C207.08 50.2256 206.723 49.9702 206.417 49.6449C206.111 49.3226 205.866 48.9486 205.686 48.526C205.503 48.1064 205.415 47.6503 205.415 47.1639C205.415 46.8324 205.465 46.5132 205.568 46.2031C205.668 45.8869 205.795 45.5828 205.945 45.2909C205.951 45.2605 205.996 45.1663 206.075 45.0112C206.161 44.8501 206.264 44.6555 206.382 44.4275C206.505 44.1933 206.644 43.9288 206.794 43.6369C206.942 43.3451 207.095 43.0471 207.254 42.737C207.622 42.0316 208.032 41.2411 208.48 40.3654H210.849L209.069 43.7099C209.39 43.7099 209.697 43.7586 209.989 43.8558C210.277 43.9531 210.546 44.0839 210.79 44.245ZM208.763 48.7206C208.942 48.7206 209.116 48.681 209.281 48.5989C209.452 48.5199 209.6 48.4104 209.717 48.2706C209.841 48.1338 209.941 47.9726 210.012 47.7841C210.083 47.5986 210.118 47.4041 210.118 47.2003C210.118 46.7716 209.989 46.4098 209.729 46.1179C209.476 45.8261 209.134 45.6801 208.704 45.6801C208.539 45.6801 208.374 45.7136 208.209 45.7774C208.044 45.8443 207.893 45.9568 207.761 46.1179L207.737 46.1788C207.649 46.3581 207.572 46.5436 207.501 46.7382C207.437 46.9267 207.407 47.0787 207.407 47.2003C207.407 47.4041 207.437 47.5986 207.501 47.7841C207.572 47.9726 207.669 48.1338 207.796 48.2706C207.92 48.4104 208.067 48.5199 208.232 48.5989C208.397 48.681 208.574 48.7206 208.763 48.7206Z" fill="#26B7D1"/>
  <path d="M218.574 44.245C219.045 44.5552 219.399 44.9717 219.634 45.4977C219.876 46.0176 220 46.574 220 47.1639C220 47.6503 219.908 48.1064 219.729 48.526C219.546 48.9486 219.304 49.3226 218.998 49.6449C218.697 49.9702 218.341 50.2256 217.925 50.4111C217.516 50.5965 217.077 50.6908 216.605 50.6908C216.234 50.6908 215.88 50.63 215.544 50.5083C215.205 50.3959 214.899 50.2347 214.625 50.0219C214.348 49.8121 214.106 49.5597 213.894 49.2678C213.682 48.976 213.52 48.6598 213.411 48.3192L215.226 47.5165C215.297 47.851 215.453 48.1338 215.697 48.3679C215.939 48.605 216.222 48.7206 216.546 48.7206C216.735 48.7206 216.912 48.681 217.077 48.5989C217.242 48.5199 217.386 48.4104 217.513 48.2706C217.636 48.1338 217.737 47.9726 217.807 47.7841C217.878 47.5986 217.913 47.4041 217.913 47.2003C217.913 46.7473 217.772 46.3794 217.489 46.0936C217.212 45.8017 216.888 45.6558 216.511 45.6558C216.29 45.6558 216.066 45.7014 215.839 45.7896C215.618 45.8808 215.403 45.9902 215.191 46.1179L213.894 45.1328L214.389 40.3654H219.21V42.3478H216.075L215.945 44.0626C216.116 43.9835 216.293 43.9258 216.475 43.8923C216.655 43.8528 216.835 43.8315 217.018 43.8315C217.324 43.8315 217.613 43.8741 217.89 43.9531C218.164 44.0352 218.391 44.1325 218.574 44.245Z" fill="#26B7D1"/>
</svg>