<svg xmlns="http://www.w3.org/2000/svg" width="120" height="35" viewBox="0 0 120 35" fill="none">
  <path d="M47.6123 0.317383H66.8117V5.62673H60.0347V27.6047H54.3829V5.62673H47.6123V0.317383Z" fill="white"/>
  <path d="M97.5455 7.18896C98.8652 7.18896 100.087 7.45344 101.21 7.98239C102.332 8.50804 103.3 9.22543 104.11 10.1379C104.92 11.047 105.557 12.1115 106.02 13.3314C106.483 14.548 106.714 15.8505 106.714 17.239C106.714 18.6242 106.483 19.9268 106.02 21.1467C105.557 22.3633 104.92 23.4278 104.11 24.3402C103.3 25.2494 102.332 25.9667 101.21 26.4957C100.087 27.0197 98.8652 27.2825 97.5455 27.2825C96.4685 27.2825 95.4188 27.0842 94.3949 26.6874C93.3741 26.2874 92.5768 25.78 92.003 25.1667V34.4432H86.8398V7.73114H91.2571L92.003 9.0403C92.7263 8.37084 93.5365 7.89478 94.4334 7.61213C95.3336 7.33112 96.3704 7.18896 97.5455 7.18896ZM96.8703 22.5484C97.5422 22.5484 98.1724 22.4079 98.7607 22.1252C99.3474 21.8442 99.857 21.464 100.291 20.988C100.728 20.5119 101.077 19.9549 101.339 19.3152C101.604 18.6722 101.738 17.9796 101.738 17.239C101.738 16.5217 101.604 15.8357 101.339 15.1827C101.077 14.5265 100.728 13.9595 100.291 13.4835C99.857 13.0074 99.3474 12.6289 98.7607 12.3462C98.1724 12.0652 97.5422 11.9231 96.8703 11.9231C96.1968 11.9231 95.5667 12.0206 94.98 12.214C94.3916 12.4091 93.8805 12.7165 93.4433 13.1397C93.006 13.5628 92.662 14.1149 92.4145 14.7926C92.1653 15.472 92.0416 16.2869 92.0416 17.239C92.0416 18.135 92.1653 18.9102 92.4145 19.5664C92.662 20.2194 93.006 20.7698 93.4433 21.2194C93.8805 21.669 94.3916 22.0046 94.98 22.2244C95.5667 22.441 96.1968 22.5484 96.8703 22.5484Z" fill="white"/>
  <mask id="mask0_412_2279" style="mask-type:luminance" maskUnits="userSpaceOnUse" x="61" y="1" width="25" height="27">
    <path d="M61.2402 1.58691H85.5786V27.4989H61.2402V1.58691Z" fill="white"/>
  </mask>
  <g mask="url(#mask0_412_2279)">
    <path d="M76.0267 25.6327C72.6961 27.1269 68.708 25.5566 67.3224 21.8804C66.4913 19.6786 66.6698 16.7959 68.311 14.6338H78.3784C81.0371 18.0009 80.1675 23.7747 76.0267 25.6327ZM82.5144 3.46958H77.9653V6.63998C77.041 5.65647 74.5527 3.01005 73.368 1.75049C73.1381 1.99348 64.011 11.703 61.2559 14.6338H62.7636C61.5436 17.5166 61.5918 20.963 62.7154 23.7086C66.4865 32.9487 80.0534 33.1471 84.0029 23.6441C85.186 20.8027 85.1329 17.3661 84.0141 14.6338H85.4801L82.5144 11.4799V3.46958Z" fill="#26B7D1"/>
  </g>
  <path d="M0 0.317383H19.1994V5.62673H12.4224V27.6047H6.77058V5.62673H0V0.317383Z" fill="white"/>
  <path d="M27.3574 27.598H22.1943V8.50951H27.3574V27.598ZM24.7726 5.8912C23.9753 5.8912 23.3018 5.61019 22.7537 5.04488C22.2039 4.48121 21.9307 3.78862 21.9307 2.96874C21.9307 2.14556 22.2039 1.4447 22.7537 0.866158C23.3018 0.28927 23.9753 0 24.7726 0C25.5731 0 26.2483 0.28927 26.798 0.866158C27.3462 1.4447 27.621 2.14556 27.621 2.96874C27.621 3.78862 27.3462 4.48121 26.798 5.04488C26.2483 5.61019 25.5731 5.8912 24.7726 5.8912Z" fill="white"/>
  <path d="M41.9566 7.33252C43.2763 7.33252 44.498 7.597 45.6216 8.12595C46.7436 8.65159 47.7113 9.36898 48.5214 10.2814C49.3316 11.1906 49.9681 12.2551 50.4311 13.475C50.894 14.6916 51.1255 15.9941 51.1255 17.3826C51.1255 18.7678 50.894 20.0703 50.4311 21.2902C49.9681 22.5068 49.3316 23.5713 48.5214 24.4838C47.7113 25.3929 46.7436 26.1103 45.6216 26.6393C44.498 27.1632 43.2763 27.4261 41.9566 27.4261C40.8796 27.4261 39.8299 27.2277 38.806 26.831C37.7853 26.431 36.988 25.9235 36.4141 25.3103V34.5868H31.251V7.87469H35.6683L36.4141 9.18385C37.1375 8.5144 37.9476 8.03834 38.8446 7.75568C39.7447 7.47468 40.7816 7.33252 41.9566 7.33252ZM41.2815 22.692C41.9534 22.692 42.5835 22.5514 43.1718 22.2688C43.7585 21.9878 44.2681 21.6076 44.7021 21.1315C45.1393 20.6555 45.4882 20.0984 45.7502 19.4587C46.0154 18.8157 46.1488 18.1231 46.1488 17.3826C46.1488 16.6652 46.0154 15.9792 45.7502 15.3263C45.4882 14.6701 45.1393 14.1031 44.7021 13.627C44.2681 13.151 43.7585 12.7725 43.1718 12.4898C42.5835 12.2088 41.9534 12.0666 41.2815 12.0666C40.6079 12.0666 39.9778 12.1642 39.3911 12.3576C38.8028 12.5526 38.2916 12.8601 37.8544 13.2832C37.4172 13.7064 37.0732 14.2585 36.8256 14.9362C36.5765 15.6156 36.4527 16.4305 36.4527 17.3826C36.4527 18.2785 36.5765 19.0538 36.8256 19.71C37.0732 20.3629 37.4172 20.9134 37.8544 21.363C38.2916 21.8126 38.8028 22.1481 39.3911 22.368C39.9778 22.5845 40.6079 22.692 41.2815 22.692Z" fill="white"/>
  <path d="M110.637 24.0079C110.884 24.1897 111.075 24.4178 111.209 24.6955C111.345 24.9732 111.415 25.2741 111.415 25.5947C111.415 25.8592 111.365 26.1072 111.267 26.3353C111.167 26.565 111.035 26.7683 110.868 26.9436C110.704 27.1204 110.51 27.2593 110.283 27.3601C110.059 27.4609 109.82 27.5122 109.563 27.5122C109.36 27.5122 109.167 27.4791 108.984 27.413C108.804 27.3518 108.637 27.2642 108.483 27.1485C108.331 27.0345 108.2 26.8973 108.084 26.7386C107.971 26.5799 107.885 26.408 107.82 26.2229L108.817 25.7865C108.856 25.9683 108.941 26.122 109.074 26.2493C109.206 26.3782 109.363 26.4411 109.543 26.4411C109.642 26.4411 109.736 26.4196 109.826 26.3749C109.916 26.332 109.995 26.2725 110.064 26.1964C110.132 26.122 110.186 26.0344 110.225 25.9319C110.264 25.8311 110.283 25.7253 110.283 25.6146C110.283 25.5005 110.264 25.3947 110.225 25.2972C110.186 25.1964 110.132 25.1088 110.064 25.0327C109.995 24.9583 109.913 24.8988 109.82 24.8542C109.73 24.8112 109.627 24.7881 109.511 24.7881C109.37 24.7881 109.245 24.8244 109.138 24.8939L108.573 24.1533L109.466 22.9764H108.097V21.8987H110.887V22.4342L110.013 23.7434C110.248 23.793 110.457 23.8806 110.637 24.0079Z" fill="#26B7D1"/>
  <path d="M114.987 24.0079C115.226 24.1897 115.414 24.4178 115.553 24.6955C115.694 24.9732 115.765 25.2741 115.765 25.5947C115.765 25.8592 115.715 26.1072 115.617 26.3353C115.517 26.565 115.385 26.7683 115.218 26.9436C115.051 27.1204 114.855 27.2593 114.633 27.3601C114.41 27.4609 114.17 27.5122 113.913 27.5122C113.656 27.5122 113.413 27.4609 113.186 27.3601C112.963 27.2593 112.768 27.1204 112.601 26.9436C112.434 26.7683 112.301 26.565 112.203 26.3353C112.103 26.1072 112.055 25.8592 112.055 25.5947C112.055 25.4146 112.082 25.241 112.138 25.0724C112.193 24.9005 112.262 24.7352 112.344 24.5765C112.347 24.56 112.371 24.5087 112.415 24.4244C112.461 24.3368 112.518 24.231 112.582 24.1071C112.649 23.9798 112.725 23.836 112.807 23.6773C112.887 23.5186 112.971 23.3566 113.058 23.188C113.259 22.8045 113.482 22.3747 113.726 21.8987H115.019L114.048 23.717C114.223 23.717 114.39 23.7434 114.549 23.7963C114.707 23.8492 114.853 23.9203 114.987 24.0079ZM113.881 26.4411C113.979 26.4411 114.074 26.4196 114.164 26.3749C114.257 26.332 114.337 26.2725 114.402 26.1964C114.469 26.122 114.524 26.0344 114.562 25.9319C114.601 25.8311 114.62 25.7253 114.62 25.6146C114.62 25.3815 114.549 25.1848 114.408 25.0261C114.27 24.8674 114.083 24.7881 113.849 24.7881C113.759 24.7881 113.669 24.8063 113.579 24.841C113.489 24.8773 113.407 24.9385 113.334 25.0261L113.321 25.0592C113.273 25.1567 113.231 25.2575 113.193 25.3633C113.157 25.4658 113.141 25.5484 113.141 25.6146C113.141 25.7253 113.157 25.8311 113.193 25.9319C113.231 26.0344 113.284 26.122 113.354 26.1964C113.421 26.2725 113.501 26.332 113.591 26.3749C113.681 26.4196 113.778 26.4411 113.881 26.4411Z" fill="#26B7D1"/>
  <path d="M119.223 24.0079C119.48 24.1765 119.673 24.4029 119.801 24.6889C119.933 24.9716 120.001 25.2741 120.001 25.5947C120.001 25.8592 119.951 26.1072 119.853 26.3353C119.753 26.565 119.621 26.7683 119.454 26.9436C119.29 27.1204 119.096 27.2593 118.869 27.3601C118.645 27.4609 118.406 27.5122 118.149 27.5122C117.946 27.5122 117.753 27.4791 117.57 27.413C117.385 27.3518 117.218 27.2642 117.069 27.1485C116.917 27.0345 116.786 26.8973 116.67 26.7386C116.554 26.5799 116.466 26.408 116.406 26.2229L117.396 25.7865C117.435 25.9683 117.52 26.122 117.654 26.2493C117.785 26.3782 117.94 26.4411 118.117 26.4411C118.219 26.4411 118.316 26.4196 118.406 26.3749C118.496 26.332 118.575 26.2725 118.644 26.1964C118.711 26.122 118.766 26.0344 118.805 25.9319C118.843 25.8311 118.862 25.7253 118.862 25.6146C118.862 25.3683 118.785 25.1683 118.631 25.0129C118.48 24.8542 118.303 24.7749 118.097 24.7749C117.977 24.7749 117.855 24.7997 117.731 24.8476C117.61 24.8972 117.493 24.9567 117.377 25.0261L116.67 24.4905L116.94 21.8987H119.57V22.9764H117.859L117.789 23.9087C117.882 23.8657 117.978 23.8343 118.078 23.8161C118.176 23.7946 118.274 23.7831 118.374 23.7831C118.541 23.7831 118.698 23.8062 118.85 23.8492C118.999 23.8938 119.123 23.9467 119.223 24.0079Z" fill="#26B7D1"/>
</svg>